<?xml version="1.0" standalone="no"?>
<!DOCTYPE svg PUBLIC "-//W3C//DTD SVG 20010904//EN"
 "http://www.w3.org/TR/2001/REC-SVG-20010904/DTD/svg10.dtd">
<svg version="1.0" xmlns="http://www.w3.org/2000/svg"
 width="150.000000pt" height="103.000000pt" viewBox="0 0 150.000000 103.000000"
 preserveAspectRatio="xMidYMid meet">

<g transform="translate(0.000000,103.000000) scale(0.100000,-0.100000)"
fill="#000000" stroke="none">
<path d="M157 293 c-4 -3 -7 -64 -7 -135 0 -121 1 -128 20 -128 17 0 20 7 20
50 0 36 4 50 14 50 9 0 19 -20 26 -50 9 -40 16 -50 32 -50 18 0 20 4 13 33 -9
34 -8 45 1 146 5 55 3 67 -12 78 -18 13 -96 18 -107 6z m78 -78 c0 -34 -3 -40
-22 -43 -21 -3 -23 1 -23 43 0 42 2 46 23 43 19 -3 22 -9 22 -43z"/>
<path d="M317 294 c-4 -4 -7 -65 -7 -136 l0 -128 55 0 c42 0 55 3 55 15 0 10
-10 15 -30 15 -29 0 -30 2 -30 45 0 41 2 45 25 45 16 0 25 6 25 15 0 9 -9 15
-25 15 -22 0 -25 4 -25 39 0 36 3 40 28 43 47 5 34 33 -18 36 -25 2 -49 0 -53
-4z"/>
<path d="M460 280 c-18 -18 -20 -33 -20 -135 l0 -115 24 0 c23 0 25 5 28 48 2
34 7 47 18 47 11 0 16 -13 18 -47 3 -43 5 -48 28 -48 l24 0 0 119 c0 113 -1
121 -22 135 -31 22 -74 20 -98 -4z m70 -70 c0 -43 -3 -50 -20 -50 -17 0 -20 7
-20 50 0 43 3 50 20 50 17 0 20 -7 20 -50z"/>
<path d="M620 165 l0 -135 53 0 c29 0 58 5 65 12 8 8 12 49 12 119 0 100 -2
109 -22 123 -12 9 -42 16 -65 16 l-43 0 0 -135z m85 -5 c0 -91 -1 -95 -22 -98
-23 -3 -23 -1 -23 98 0 99 0 101 23 98 21 -3 22 -7 22 -98z"/>
<path d="M770 289 c0 -7 10 -44 21 -83 12 -39 22 -93 23 -121 1 -44 4 -50 24
-53 21 -3 22 0 22 56 0 33 9 90 21 127 11 37 18 69 15 72 -14 14 -36 -11 -42
-47 -4 -22 -10 -43 -15 -45 -7 -5 -29 55 -29 81 0 7 -7 15 -16 18 -22 8 -24 8
-24 -5z"/>
<path d="M934 256 c-8 -33 5 -74 17 -55 12 19 11 79 -1 79 -5 0 -12 -11 -16
-24z"/>
<path d="M943 125 c0 -22 2 -30 4 -17 2 12 2 30 0 40 -3 9 -5 -1 -4 -23z"/>
</g>
</svg>
